<?xml version="1.0" encoding="UTF-8"?>
<svg data-bbox="0 0 512 512" xmlns="http://www.w3.org/2000/svg" width="512pt" viewBox="0 0 512 512" height="512pt" data-type="shape">
    <g>
        <path d="M497 271c-8.29 0-15 6.71-15 15v15H30v-15c0-8.29-6.71-15-15-15s-15 6.71-15 15v60c0 8.29 6.71 15 15 15s15-6.71 15-15v-15h18.285l-16.953 67.836A44.905 44.905 0 0 0 30 409.69V467c0 24.813 20.188 45 45 45h362c24.813 0 45-20.188 45-45v-57.309c0-3.617-.438-7.265-1.348-10.914L463.715 331H482v15c0 8.29 6.71 15 15 15s15-6.71 15-15v-60c0-8.29-6.71-15-15-15zM135.973 451c-8.286 0-15-6.715-15-15s6.714-15 15-15 15 6.715 15 15-6.715 15-15 15zm0-60c-8.286 0-15-6.715-15-15s6.714-15 15-15 15 6.715 15 15-6.715 15-15 15zm60 60c-8.286 0-15-6.715-15-15s6.714-15 15-15 15 6.715 15 15-6.715 15-15 15zm0-60c-8.286 0-15-6.715-15-15s6.714-15 15-15 15 6.715 15 15-6.715 15-15 15zm60 60c-8.286 0-15-6.715-15-15s6.714-15 15-15 15 6.715 15 15-6.715 15-15 15zm0-60c-8.286 0-15-6.715-15-15s6.714-15 15-15 15 6.715 15 15-6.715 15-15 15zm60 60c-8.286 0-15-6.715-15-15s6.714-15 15-15 15 6.715 15 15-6.715 15-15 15zm0-60c-8.286 0-15-6.715-15-15s6.714-15 15-15 15 6.715 15 15-6.715 15-15 15zm60 60c-8.286 0-15-6.715-15-15s6.714-15 15-15 15 6.715 15 15-6.715 15-15 15zm0-60c-8.286 0-15-6.715-15-15s6.714-15 15-15 15 6.715 15 15-6.715 15-15 15zm0 0"/>
        <path d="M331 8.79V91h81.21zm0 0"/>
        <path d="M421 121H316c-8.29 0-15-6.71-15-15V0H106c-8.29 0-15 6.71-15 15v256h330zM166 91h90c8.29 0 15 6.71 15 15s-6.71 15-15 15h-90c-8.29 0-15-6.71-15-15s6.71-15 15-15zm180 150H166c-8.29 0-15-6.71-15-15s6.71-15 15-15h180c8.29 0 15 6.71 15 15s-6.71 15-15 15zm0-60H166c-8.29 0-15-6.71-15-15s6.71-15 15-15h180c8.29 0 15 6.71 15 15s-6.71 15-15 15zm0 0"/>
    </g>
</svg>
